<?xml version="1.0" standalone="no"?>
<!DOCTYPE svg PUBLIC "-//W3C//DTD SVG 20010904//EN"
 "http://www.w3.org/TR/2001/REC-SVG-20010904/DTD/svg10.dtd">
<svg version="1.0" xmlns="http://www.w3.org/2000/svg"
 width="1408.000000pt" height="655.000000pt" viewBox="0 0 1408.000000 655.000000"
 preserveAspectRatio="xMidYMid meet">

<g transform="translate(0.000000,655.000000) scale(0.100000,-0.100000)"
fill="#000000" stroke="none">
<path d="M4665 6280 l-3540 -5 -80 -23 c-82 -23 -249 -98 -275 -123 -8 -8 -42
-35 -75 -61 -100 -77 -196 -186 -239 -270 -11 -21 -22 -38 -26 -38 -13 0 -81
-160 -103 -243 l-22 -82 0 -2170 0 -2170 23 -79 c60 -207 180 -385 342 -508
88 -67 245 -142 355 -170 l90 -23 5930 0 c5596 0 5934 1 6008 17 413 92 706
428 747 856 13 142 13 4058 0 4196 -24 249 -124 460 -297 627 -123 120 -253
195 -433 251 l-75 23 -2395 0 c-1317 0 -3988 -2 -5935 -5z m-3945 -308 c0 -4
-14 -30 -32 -58 -84 -132 -153 -271 -213 -434 -22 -58 -42 -107 -45 -110 -4
-3 -14 -24 -23 -48 -16 -39 -17 -193 -17 -2052 0 -1317 -3 -2010 -10 -2010 -6
0 -11 700 -14 2023 -2 1112 -7 2046 -11 2076 -7 52 7 178 25 225 26 69 44 106
52 106 4 0 8 5 8 10 0 6 17 37 37 68 21 31 41 64 45 73 19 48 198 165 198 131z
m5976 -382 c33 0 30 -14 -11 -54 -38 -37 -49 -60 -13 -26 25 23 48 26 49 8 0
-10 2 -10 6 0 2 6 16 12 30 12 22 0 24 -2 13 -16 -15 -17 -20 -84 -7 -84 5 0
15 -6 23 -14 7 -8 22 -13 31 -12 10 2 12 1 6 -1 -7 -3 -13 -9 -13 -14 0 -5 -7
-9 -15 -9 -22 0 -18 -18 5 -25 21 -7 28 -25 10 -25 -5 0 -10 5 -10 11 0 6 -7
9 -15 5 -9 -3 -15 0 -15 9 0 9 -9 15 -22 14 -22 0 -22 -1 -3 -9 19 -8 19 -9
-2 -9 -14 -1 -23 5 -23 14 0 8 -7 15 -15 15 -8 0 -12 -6 -9 -14 4 -9 -3 -13
-21 -13 -30 0 -43 14 -21 23 9 3 16 10 16 15 0 15 -22 10 -36 -8 -11 -15 -10
-20 9 -35 18 -14 20 -19 10 -29 -11 -11 -13 -10 -13 3 0 9 -4 20 -10 23 -13 8
-52 -14 -45 -26 9 -13 -17 -36 -38 -33 -9 1 -17 -2 -17 -7 0 -5 4 -9 9 -9 5 0
11 -9 14 -20 3 -13 11 -18 20 -14 8 3 18 1 22 -5 8 -14 72 -14 80 -1 10 15 35
12 35 -5 0 -17 16 -20 25 -5 3 6 1 10 -5 10 -6 0 -4 7 5 16 12 13 13 19 4 24
-7 5 1 11 22 15 33 7 79 46 79 66 0 5 6 9 13 9 9 0 9 2 -1 8 -7 5 -10 16 -6
25 7 18 31 22 53 8 11 -7 9 -10 -7 -15 -11 -4 -19 -14 -18 -24 0 -10 -5 -16
-14 -14 -10 1 -7 -5 7 -17 19 -16 20 -21 8 -31 -8 -6 -33 -14 -57 -18 -33 -4
-38 -7 -23 -13 20 -7 20 -8 0 -8 -11 -1 -26 -10 -33 -21 -14 -23 -12 -24 39
-8 40 11 49 22 27 31 -8 3 -6 6 5 6 11 1 17 -6 17 -19 0 -11 -7 -20 -15 -20
-8 0 -15 -7 -15 -15 0 -15 -14 -20 -82 -29 -37 -5 -43 0 -39 32 1 6 -2 12 -7
12 -16 0 -21 -13 -12 -30 6 -11 5 -17 -3 -17 -7 0 -30 -3 -52 -7 -40 -7 -40 7
0 17 15 4 14 5 -7 6 -15 0 -30 -4 -33 -9 -7 -11 -63 -9 -82 3 -6 4 -14 3 -17
-1 -6 -11 71 -38 81 -29 3 4 11 2 18 -3 8 -6 37 -4 85 6 40 8 85 14 98 12 40
-5 -119 -113 -211 -145 -87 -29 -211 -48 -260 -39 -46 9 -87 42 -87 70 0 12
-11 33 -24 45 -28 26 -29 70 -2 118 8 15 22 44 29 64 18 45 104 159 121 159 7
0 23 11 36 25 13 14 29 25 36 25 14 0 76 31 85 42 8 12 153 57 167 52 8 -2 25
-4 38 -4z m6141 -153 l32 -17 3 -629 3 -629 24 -26 c13 -14 40 -27 62 -31 21
-4 43 -13 49 -20 29 -35 -65 -145 -163 -191 -98 -45 -237 -24 -309 48 -69 69
-68 61 -68 803 0 645 1 662 20 680 30 27 75 34 200 32 86 -2 123 -7 147 -20z
m-10002 -28 c78 -21 107 -67 107 -166 -1 -128 -57 -168 -226 -161 -165 7 -201
40 -194 179 3 70 6 81 32 108 15 16 45 34 65 39 50 14 168 14 216 1z m4080
-39 c-3 -5 -11 -10 -16 -10 -6 0 -7 5 -4 10 3 6 11 10 16 10 6 0 7 -4 4 -10z
m1525 -39 c20 -10 69 -108 250 -501 124 -269 228 -486 232 -482 3 4 106 221
227 482 160 345 227 480 246 495 24 18 41 20 158 19 74 0 144 -6 160 -12 l27
-12 0 -699 c0 -638 -1 -700 -17 -712 -22 -19 -288 -20 -320 -1 l-23 13 -2 354
-3 355 -155 -336 c-85 -184 -163 -343 -174 -352 -15 -14 -39 -17 -127 -17 -95
0 -111 2 -128 20 -10 11 -88 170 -172 353 l-154 333 -3 -355 -2 -355 -23 -12
c-12 -7 -70 -15 -129 -17 l-107 -5 -4 -31 c-2 -17 -4 289 -5 679 -1 391 1 734
5 764 l6 53 106 -4 c58 -3 117 -10 131 -17z m-1735 -9 c-3 -3 -11 0 -18 7 -9
10 -8 11 6 5 10 -3 15 -9 12 -12z m89 -6 c-7 -17 -48 -29 -52 -16 -2 6 -9 8
-15 4 -7 -3 -3 2 7 10 25 20 68 22 60 2z m-4514 -26 c14 -26 14 -187 0 -240
-6 -23 -20 -52 -31 -63 -10 -11 -19 -25 -19 -30 0 -5 -47 -68 -103 -141 -57
-72 -106 -137 -108 -143 -2 -5 -50 -70 -106 -144 -56 -74 -143 -188 -192 -254
l-90 -120 212 -3 c161 -2 241 1 332 14 183 27 169 30 173 -41 7 -135 -35 -301
-80 -313 -10 -2 -18 -8 -18 -13 0 -5 -238 -9 -549 -9 l-549 0 -16 34 c-19 40
-20 163 -3 244 10 42 30 75 105 172 51 66 97 120 103 120 5 0 9 5 9 11 0 6 47
72 105 147 57 75 146 192 197 260 51 68 102 135 112 149 l20 26 -245 -6 c-167
-4 -266 -11 -312 -21 -38 -9 -73 -13 -79 -10 -16 10 -3 229 17 293 9 29 27 64
40 77 l24 24 520 0 c509 0 521 0 531 -20z m11462 -4160 c2 -80 -2 -118 -16
-160 -46 -137 -126 -255 -220 -325 -46 -34 -96 -58 -104 -51 -3 3 21 46 52 95
72 114 166 311 217 452 l39 110 0 2023 c0 1112 3 2026 8 2030 4 4 10 -910 14
-2031 4 -1121 9 -2085 10 -2143z m-7112 4161 c0 -5 -11 -11 -25 -13 -20 -4
-23 -3 -14 8 13 16 39 19 39 5z m80 -16 c-7 -8 -21 -15 -30 -15 -10 0 -20 -5
-22 -12 -6 -16 -48 -21 -48 -5 0 18 54 45 94 46 15 1 16 -2 6 -14z m3996 -270
c101 -21 155 -46 210 -97 72 -66 89 -107 89 -213 0 -107 -15 -142 -96 -223
-94 -94 -242 -154 -469 -189 l-55 -9 46 -46 c51 -50 107 -73 199 -84 92 -10
176 15 307 92 51 30 58 14 40 -102 -19 -127 -27 -147 -79 -184 -77 -56 -162
-75 -333 -75 -112 1 -166 5 -215 19 -192 53 -322 163 -381 326 -21 57 -24 82
-24 210 0 166 17 233 84 337 128 198 402 294 677 238z m1140 -1 c152 -31 249
-104 295 -222 21 -53 23 -79 30 -342 3 -157 7 -286 8 -287 13 -21 52 -43 82
-48 54 -9 64 -26 43 -70 -35 -75 -169 -165 -247 -165 -37 0 -114 33 -171 73
l-28 20 -63 -31 c-86 -43 -165 -62 -260 -62 -149 0 -271 49 -336 134 -45 59
-59 104 -59 188 0 96 22 158 80 221 73 80 158 120 431 201 93 28 125 52 114
86 -25 78 -203 75 -404 -6 -47 -19 -95 -34 -108 -34 -20 0 -23 5 -23 38 0 48
24 141 49 190 29 57 136 107 266 125 75 10 232 6 301 -9z m-8280 -46 c34 -28
60 -54 81 -83 l21 -30 88 44 c48 23 111 48 140 54 30 6 54 15 54 19 0 10 167
11 172 0 2 -4 29 -15 62 -26 71 -22 140 -81 170 -146 20 -42 21 -67 26 -386 6
-388 3 -377 87 -390 51 -7 60 -22 43 -64 -14 -33 -97 -114 -135 -132 -14 -6
-25 -14 -25 -18 0 -36 -216 -38 -239 -2 -3 5 -16 12 -27 16 -33 10 -74 55 -98
106 -20 42 -21 67 -26 373 l-5 327 -32 30 c-34 32 -83 40 -108 18 -7 -7 -31
-24 -53 -37 -73 -44 -72 -37 -72 -430 l0 -351 -32 -20 c-18 -11 -43 -20 -55
-20 -13 0 -23 -4 -23 -10 0 -6 -38 -10 -95 -10 -57 0 -95 4 -95 10 0 6 -9 10
-20 10 -29 0 -76 26 -84 45 -3 9 -6 187 -6 396 l0 379 -30 67 c-29 63 -29 67
-14 91 9 14 28 36 43 49 37 33 151 100 184 108 15 4 27 11 27 16 0 14 59 11
76 -3z m1844 4 c0 -4 29 -13 63 -19 91 -18 170 -50 216 -89 l39 -34 7 -292 c4
-161 8 -432 9 -603 1 -299 0 -312 -22 -376 -30 -86 -69 -147 -123 -191 -93
-76 -183 -107 -329 -115 -154 -8 -343 32 -413 88 -36 28 -59 105 -61 207 l-1
87 30 -1 c17 -1 77 -19 135 -39 181 -65 318 -51 362 36 13 25 18 58 18 121 l0
87 -30 -10 c-16 -6 -30 -14 -30 -18 0 -13 -98 -31 -164 -31 -68 0 -167 16
-175 28 -4 4 -31 18 -61 32 -69 32 -157 119 -191 190 -63 131 -82 335 -45 480
62 243 235 397 499 442 37 7 67 16 67 20 0 4 45 8 100 8 55 0 100 -3 100 -8z
m1250 -2 c0 -5 12 -10 28 -10 15 0 58 -9 95 -20 178 -50 266 -161 255 -320 -6
-86 -32 -139 -105 -215 -88 -91 -221 -149 -418 -181 -58 -10 -105 -21 -105
-24 0 -7 47 -51 97 -91 53 -43 169 -58 268 -35 38 9 72 20 75 25 13 19 150 85
159 76 6 -6 6 -42 0 -95 -12 -107 -24 -151 -49 -183 -22 -28 -117 -77 -149
-77 -10 0 -21 -4 -23 -10 -5 -15 -103 -30 -201 -30 -99 0 -217 17 -217 31 0 5
-8 9 -17 9 -32 1 -151 57 -204 96 -69 51 -132 138 -159 221 -27 84 -37 207
-22 276 6 29 16 81 23 117 36 208 207 383 412 422 37 7 67 16 67 20 0 5 43 8
95 8 57 0 95 -4 95 -10z m840 1 c0 -5 9 -11 19 -14 11 -2 35 -27 55 -54 l36
-50 45 43 c30 29 60 48 90 55 25 6 45 15 45 20 0 5 25 9 55 9 30 0 55 -4 55
-8 0 -4 20 -13 44 -20 24 -6 57 -22 72 -35 26 -23 27 -26 14 -57 -8 -18 -36
-65 -64 -104 -28 -39 -59 -83 -68 -98 -25 -38 -52 -43 -94 -19 -52 31 -109 28
-145 -8 l-29 -29 0 -370 c0 -414 3 -396 -74 -409 -20 -3 -36 -10 -36 -14 0 -5
-43 -9 -95 -9 -57 0 -95 4 -95 10 0 6 -9 10 -20 10 -12 0 -34 7 -50 15 l-30
16 0 372 c0 385 -5 443 -44 498 -30 43 -21 73 39 127 50 44 168 112 195 112 5
0 10 5 10 10 0 6 16 10 35 10 19 0 35 -4 35 -9z m-4666 -31 c103 -17 96 14 97
-434 0 -275 4 -401 12 -426 12 -34 30 -44 115 -66 6 -2 12 -16 12 -31 0 -35
-46 -92 -108 -135 -26 -17 -49 -35 -52 -39 -11 -16 -63 -29 -113 -29 -51 0
-127 16 -137 29 -3 3 -22 19 -43 34 -20 16 -47 47 -60 70 -22 42 -22 47 -25
513 -3 451 -2 471 16 487 36 33 173 46 286 27z m7011 -2204 c240 -84 544 -238
675 -341 54 -43 151 -142 177 -180 64 -95 102 -223 88 -299 -6 -28 -10 -33
-28 -28 -37 9 -47 23 -47 68 0 23 -4 54 -10 69 -5 14 -12 40 -15 58 -18 99
-167 274 -325 380 -98 66 -284 165 -340 182 -14 4 -41 16 -60 26 -19 11 -42
19 -50 19 -18 0 -120 47 -120 55 0 8 11 6 55 -9z m-2519 -46 c113 -12 201 -39
329 -100 113 -54 226 -149 272 -228 15 -26 35 -55 44 -65 18 -20 59 -140 59
-174 0 -12 5 -25 10 -28 12 -8 14 -225 1 -225 -5 0 -11 -18 -15 -41 -7 -43
-51 -159 -64 -168 -4 -4 -20 -26 -36 -51 -32 -49 -125 -150 -139 -150 -5 0
-23 -10 -40 -22 -163 -117 -342 -165 -576 -155 -198 8 -357 60 -490 161 -29
23 -68 52 -86 66 -18 14 -43 40 -55 57 -12 18 -32 44 -45 59 -13 15 -35 59
-51 98 -15 39 -31 73 -35 76 -5 3 -13 46 -19 96 -12 95 0 248 20 268 5 5 10
17 10 26 0 23 68 160 79 160 5 0 12 8 15 18 7 22 120 142 133 142 5 0 18 9 28
20 25 27 184 103 270 129 63 19 176 36 260 39 17 1 71 -3 121 -8z m1004 -149
c5 -11 11 -90 11 -178 1 -87 3 -150 6 -141 2 10 19 48 38 86 41 84 80 112 158
112 76 0 114 -29 160 -123 34 -68 37 -82 37 -160 l0 -84 -50 -54 -50 -54 7
-278 6 -279 -29 -23 c-44 -37 -124 -35 -164 4 l-30 28 0 126 c0 73 4 128 10
132 6 4 10 66 10 153 0 145 0 148 -24 162 -14 8 -39 33 -56 55 l-33 40 7 -180
c3 -99 9 -248 12 -330 l7 -150 -28 -33 c-25 -30 -31 -32 -90 -32 -58 0 -65 2
-89 31 -30 36 -31 40 -15 314 10 175 9 191 -6 200 -62 36 -59 19 -45 263 7
122 17 222 22 222 4 0 8 13 8 29 0 45 27 109 57 136 37 33 136 36 153 6z
m-2007 -145 c3 -7 9 -35 12 -62 4 -27 12 -54 17 -61 5 -6 10 -61 11 -121 l2
-110 -61 -59 -62 -59 8 -255 c7 -262 3 -301 -30 -319 -34 -18 -109 -12 -142
12 l-31 22 6 272 6 271 -49 45 c-74 68 -81 119 -49 338 16 110 -2 100 189 100
133 0 169 -3 173 -14z"/>
<path d="M6620 5485 c-11 -13 -10 -14 4 -9 9 3 16 10 16 15 0 13 -6 11 -20 -6z"/>
<path d="M6576 5444 c-5 -14 -4 -15 9 -4 17 14 19 20 6 20 -5 0 -12 -7 -15
-16z"/>
<path d="M6695 5420 c-4 -6 5 -10 20 -10 15 0 24 4 20 10 -3 6 -12 10 -20 10
-8 0 -17 -4 -20 -10z"/>
<path d="M6599 5404 c0 -10 -3 -13 -6 -6 -2 6 -11 12 -19 12 -8 0 -11 -6 -8
-15 4 -8 13 -15 20 -15 16 0 30 27 20 37 -3 4 -6 -2 -7 -13z"/>
<path d="M6620 5409 c0 -5 5 -7 10 -4 6 3 10 8 10 11 0 2 -4 4 -10 4 -5 0 -10
-5 -10 -11z"/>
<path d="M6740 5391 c0 -10 39 -11 45 -2 2 5 -7 9 -20 9 -14 0 -25 -3 -25 -7z"/>
<path d="M6450 5380 c-13 -9 -13 -10 0 -10 8 0 22 5 30 10 13 9 13 10 0 10 -8
0 -22 -5 -30 -10z"/>
<path d="M6465 5350 c-16 -11 -25 -20 -20 -20 10 0 64 39 55 40 -3 0 -18 -9
-35 -20z"/>
<path d="M6548 5363 c7 -3 16 -2 19 1 4 3 -2 6 -13 5 -11 0 -14 -3 -6 -6z"/>
<path d="M6521 5323 c-11 -12 -15 -13 -22 -1 -5 7 -9 8 -9 2 0 -6 -11 -16 -25
-22 -14 -6 -27 -23 -31 -39 -4 -15 -14 -36 -22 -45 -14 -16 -13 -18 4 -19 14
0 12 -3 -8 -11 -16 -5 -28 -13 -28 -18 0 -4 16 0 35 8 28 13 32 18 22 31 -9
11 -9 15 0 18 7 2 10 10 7 16 -2 7 2 21 9 31 13 18 14 18 21 -8 5 -21 2 -31
-10 -41 -12 -8 -14 -14 -5 -19 15 -10 83 13 75 25 -3 5 -10 6 -16 3 -17 -11
-1 69 17 82 9 7 13 14 8 17 -4 3 -14 -2 -22 -10z m-26 -32 c3 -5 1 -12 -4 -15
-5 -3 -11 1 -15 9 -6 16 9 21 19 6z"/>
<path d="M6555 5310 c-3 -5 -1 -10 4 -10 6 0 11 5 11 10 0 6 -2 10 -4 10 -3 0
-8 -4 -11 -10z"/>
<path d="M6785 5210 c-3 -5 -1 -10 4 -10 6 0 11 5 11 10 0 6 -2 10 -4 10 -3 0
-8 -4 -11 -10z"/>
<path d="M6477 5128 c2 -5 10 -8 18 -8 8 0 16 3 18 8 3 4 -5 7 -18 7 -13 0
-21 -3 -18 -7z"/>
<path d="M6551 5116 c7 -8 98 -10 105 -3 4 4 -19 7 -51 7 -32 0 -56 -2 -54 -4z"/>
<path d="M6385 5083 c15 -16 63 -24 70 -13 3 6 -5 10 -19 10 -13 0 -33 3 -43
6 -12 5 -15 4 -8 -3z"/>
<path d="M6488 5064 c20 -15 46 -18 37 -5 -3 5 3 12 12 14 10 3 -1 4 -24 4
-37 0 -40 -2 -25 -13z"/>
<path d="M6568 5073 c7 -3 16 -2 19 1 4 3 -2 6 -13 5 -11 0 -14 -3 -6 -6z"/>
<path d="M10473 4780 c-60 -36 -109 -141 -120 -257 l-6 -62 29 8 c152 44 244
141 244 259 0 67 -78 95 -147 52z"/>
<path d="M11636 4396 c-96 -40 -136 -90 -136 -169 0 -56 25 -90 85 -112 57
-22 123 -14 159 20 26 24 27 26 24 152 l-3 128 -35 3 c-20 1 -61 -9 -94 -22z"/>
<path d="M5235 4723 c-73 -16 -128 -74 -168 -176 -25 -64 -35 -255 -18 -337
23 -108 97 -190 171 -190 44 0 97 32 110 66 6 14 10 150 10 313 0 262 -2 289
-17 304 -21 18 -59 27 -88 20z"/>
<path d="M6489 4717 c-59 -40 -119 -179 -119 -278 l0 -48 56 19 c115 40 185
107 205 195 20 89 -4 135 -70 135 -23 0 -51 -9 -72 -23z"/>
<path d="M7030 2579 c-105 -20 -153 -38 -218 -81 -24 -15 -46 -28 -50 -28 -10
0 -120 -106 -164 -159 -21 -24 -45 -63 -54 -87 -9 -24 -20 -44 -25 -44 -12 0
-39 -134 -39 -198 0 -79 15 -155 42 -211 83 -171 214 -296 368 -351 118 -42
148 -50 221 -61 135 -19 295 4 448 66 150 61 308 220 352 355 12 36 27 71 33
79 15 19 15 223 0 242 -6 8 -17 32 -24 54 -23 74 -58 130 -125 202 -70 76
-119 114 -220 169 -56 29 -91 40 -225 64 -75 14 -220 9 -320 -11z m400 -126
c145 -53 279 -163 325 -268 15 -33 32 -71 38 -84 17 -34 16 -243 0 -249 -7 -2
-13 -11 -13 -21 0 -31 -49 -115 -97 -168 -125 -136 -306 -203 -508 -189 -126
8 -209 34 -322 99 -44 26 -114 100 -158 165 -54 82 -69 143 -63 271 4 85 8
104 38 164 70 139 197 238 370 288 89 26 308 21 390 -8z"/>
<path d="M7140 2393 c-70 -12 -156 -48 -252 -106 -38 -23 -93 -85 -103 -118
-4 -10 -10 -19 -15 -19 -12 0 -39 -86 -46 -145 -30 -249 272 -488 561 -444 90
14 158 40 231 88 73 47 110 84 136 136 12 22 25 43 29 46 5 3 16 37 24 75 11
54 12 82 4 132 -6 34 -16 68 -23 75 -6 7 -20 30 -31 52 -74 148 -327 260 -515
228z"/>
<path d="M8231 2440 c-8 -19 -18 -37 -23 -40 -7 -6 -21 -146 -33 -337 l-7
-103 38 -17 37 -18 -7 -120 c-3 -66 -9 -182 -12 -258 l-7 -139 29 4 29 3 3 94
c2 58 -1 97 -8 101 -7 4 -13 155 -18 436 -6 388 -8 426 -21 394z"/>
<path d="M8497 2302 c-15 -15 -27 -33 -27 -40 0 -7 -4 -12 -10 -12 -12 0 -30
-65 -30 -112 0 -54 16 -88 62 -127 l40 -34 -3 -281 c-4 -253 -2 -281 12 -284
9 -2 18 3 21 10 2 7 0 135 -5 283 l-9 270 48 42 c45 40 48 45 52 102 5 71 -14
136 -54 180 -34 38 -62 39 -97 3z"/>
<path d="M6251 2193 l-1 -123 -100 0 -100 0 -1 93 -2 92 -8 -65 c-15 -107 10
-180 66 -194 13 -3 31 -19 39 -34 l14 -27 11 28 c6 15 14 27 19 27 5 0 26 16
48 35 l39 35 -2 83 c-1 45 -6 102 -11 127 -8 38 -10 26 -11 -77z"/>
<path d="M6146 1824 c-3 -26 -6 -130 -6 -231 0 -170 1 -184 18 -181 13 2 17
13 17 46 -1 23 -2 125 -3 227 -2 179 -12 235 -26 139z"/>
</g>
</svg>
